<!-- Ilustración original del manual de la LABG Suite (Luis Ángel Barrera-Guzmán). -->
<svg xmlns="http://www.w3.org/2000/svg" viewBox="85.1 377.0 49.8 75.0" role="img"><defs></defs><g transform="matrix(1 0 0 1 0 0)"><g xmlns="http://www.w3.org/2000/svg" transform="translate(110 415)"><path d="M0 -34 C 2 -14 2 6 0 26" stroke="#6b4a2a" stroke-width="2.4" fill="none" stroke-linecap="round"/><path d="M0 -22 C -18 -34 -30 -24 -12 -14 C -4 -12 -2 -18 0 -22Z" fill="#5a8f2b" opacity="0.9"/><path d="M0 -22 L -20 -23" stroke="#3d6b1d" stroke-width="0.7"/><path d="M0 -6 C 18 -18 30 -8 12 2 C 4 4 2 -2 0 -6Z" fill="#5a8f2b" opacity="0.9"/><path d="M0 -6 L 20 -7" stroke="#3d6b1d" stroke-width="0.7"/><path d="M-12 0 C -1 2 0 22 -12 25 C -24 22 -23 2 -12 0Z" fill="#4a6b30" stroke="#2d431d" stroke-width="0.8"/><ellipse cx="-15" cy="9" rx="3.4" ry="5" fill="#ffffff" opacity="0.16"/><path d="M10 8 C 21 10 22 30 10 33 C -2 30 -1 10 10 8Z" fill="#3f5f2a" stroke="#2d431d" stroke-width="0.8"/><ellipse cx="7" cy="17" rx="3.4" ry="5" fill="#ffffff" opacity="0.16"/></g></g></svg>