<!-- Ilustración original del manual de la LABG Suite (Luis Ángel Barrera-Guzmán). -->
<svg xmlns="http://www.w3.org/2000/svg" viewBox="291.9 322.3 124.1 120.1" role="img"><defs><linearGradient id="gHojaCafe" x1="0" y1="0" x2="1" y2="1"><stop offset="0%" stop-color="#6fbf5a"/><stop offset="50%" stop-color="#2f8a3c"/><stop offset="100%" stop-color="#1d5a2a"/></linearGradient><radialGradient id="gCereza" cx="50%" cy="50%" r="55%" fx="34%" fy="30%"><stop offset="0%" stop-color="#ff9a8a"/><stop offset="35%" stop-color="#e5322f"/><stop offset="80%" stop-color="#a31212"/><stop offset="100%" stop-color="#6a0909"/></radialGradient></defs><g transform="matrix(1 0 0 1 0 0)"><g xmlns="http://www.w3.org/2000/svg" transform="translate(342.75 398.00)"><g transform="translate(0 2) rotate(-6)"><path d="M-40 -30 C -20 -20 10 -10 46 6" fill="none" stroke="#6b4a2b" stroke-width="3.2" stroke-linecap="round"/><g transform="translate(-30 -26) rotate(-58)"><path d="M0 0 C 12.32 -9.68 27.28 -9.68 44.00 0 C 27.28 9.68 12.32 9.68 0 0 Z" fill="url(#gHojaCafe)" stroke="#1d5a2a" stroke-width="0.7"/><path d="M2 0 L40.48 0" stroke="#cfe9c4" stroke-width="0.9" opacity="0.8"/><path d="M8.80 0 Q 12.32 -4.40 15.40 -7.04 M8.80 0 Q 12.32 4.40 15.40 7.04" fill="none" stroke="#cfe9c4" stroke-width="0.6" opacity="0.7"/><path d="M17.60 0 Q 21.12 -4.40 24.20 -7.04 M17.60 0 Q 21.12 4.40 24.20 7.04" fill="none" stroke="#cfe9c4" stroke-width="0.6" opacity="0.7"/><path d="M26.40 0 Q 29.92 -4.40 33.00 -7.04 M26.40 0 Q 29.92 4.40 33.00 7.04" fill="none" stroke="#cfe9c4" stroke-width="0.6" opacity="0.7"/><path d="M35.20 0 Q 38.72 -4.40 41.80 -7.04 M35.20 0 Q 38.72 4.40 41.80 7.04" fill="none" stroke="#cfe9c4" stroke-width="0.6" opacity="0.7"/><path d="M7.92 -3.96 C 14.96 -7.04 22.00 -6.60 27.28 -3.52" fill="none" stroke="#ffffff" stroke-width="1.6" opacity="0.35" stroke-linecap="round"/></g><g transform="translate(-22 -22) rotate(40)"><path d="M0 0 C 11.20 -8.80 24.80 -8.80 40.00 0 C 24.80 8.80 11.20 8.80 0 0 Z" fill="url(#gHojaCafe)" stroke="#1d5a2a" stroke-width="0.7"/><path d="M2 0 L36.80 0" stroke="#cfe9c4" stroke-width="0.9" opacity="0.8"/><path d="M8.00 0 Q 11.20 -4.00 14.00 -6.40 M8.00 0 Q 11.20 4.00 14.00 6.40" fill="none" stroke="#cfe9c4" stroke-width="0.6" opacity="0.7"/><path d="M16.00 0 Q 19.20 -4.00 22.00 -6.40 M16.00 0 Q 19.20 4.00 22.00 6.40" fill="none" stroke="#cfe9c4" stroke-width="0.6" opacity="0.7"/><path d="M24.00 0 Q 27.20 -4.00 30.00 -6.40 M24.00 0 Q 27.20 4.00 30.00 6.40" fill="none" stroke="#cfe9c4" stroke-width="0.6" opacity="0.7"/><path d="M32.00 0 Q 35.20 -4.00 38.00 -6.40 M32.00 0 Q 35.20 4.00 38.00 6.40" fill="none" stroke="#cfe9c4" stroke-width="0.6" opacity="0.7"/><path d="M7.20 -3.60 C 13.60 -6.40 20.00 -6.00 24.80 -3.20" fill="none" stroke="#ffffff" stroke-width="1.6" opacity="0.35" stroke-linecap="round"/></g><g transform="translate(10 -8) rotate(-50)"><path d="M0 0 C 11.76 -9.24 26.04 -9.24 42.00 0 C 26.04 9.24 11.76 9.24 0 0 Z" fill="url(#gHojaCafe)" stroke="#1d5a2a" stroke-width="0.7"/><path d="M2 0 L38.64 0" stroke="#cfe9c4" stroke-width="0.9" opacity="0.8"/><path d="M8.40 0 Q 11.76 -4.20 14.70 -6.72 M8.40 0 Q 11.76 4.20 14.70 6.72" fill="none" stroke="#cfe9c4" stroke-width="0.6" opacity="0.7"/><path d="M16.80 0 Q 20.16 -4.20 23.10 -6.72 M16.80 0 Q 20.16 4.20 23.10 6.72" fill="none" stroke="#cfe9c4" stroke-width="0.6" opacity="0.7"/><path d="M25.20 0 Q 28.56 -4.20 31.50 -6.72 M25.20 0 Q 28.56 4.20 31.50 6.72" fill="none" stroke="#cfe9c4" stroke-width="0.6" opacity="0.7"/><path d="M33.60 0 Q 36.96 -4.20 39.90 -6.72 M33.60 0 Q 36.96 4.20 39.90 6.72" fill="none" stroke="#cfe9c4" stroke-width="0.6" opacity="0.7"/><path d="M7.56 -3.78 C 14.28 -6.72 21.00 -6.30 26.04 -3.36" fill="none" stroke="#ffffff" stroke-width="1.6" opacity="0.35" stroke-linecap="round"/></g><g transform="translate(36 2) rotate(48)"><path d="M0 0 C 10.64 -8.36 23.56 -8.36 38.00 0 C 23.56 8.36 10.64 8.36 0 0 Z" fill="url(#gHojaCafe)" stroke="#1d5a2a" stroke-width="0.7"/><path d="M2 0 L34.96 0" stroke="#cfe9c4" stroke-width="0.9" opacity="0.8"/><path d="M7.60 0 Q 10.64 -3.80 13.30 -6.08 M7.60 0 Q 10.64 3.80 13.30 6.08" fill="none" stroke="#cfe9c4" stroke-width="0.6" opacity="0.7"/><path d="M15.20 0 Q 18.24 -3.80 20.90 -6.08 M15.20 0 Q 18.24 3.80 20.90 6.08" fill="none" stroke="#cfe9c4" stroke-width="0.6" opacity="0.7"/><path d="M22.80 0 Q 25.84 -3.80 28.50 -6.08 M22.80 0 Q 25.84 3.80 28.50 6.08" fill="none" stroke="#cfe9c4" stroke-width="0.6" opacity="0.7"/><path d="M30.40 0 Q 33.44 -3.80 36.10 -6.08 M30.40 0 Q 33.44 3.80 36.10 6.08" fill="none" stroke="#cfe9c4" stroke-width="0.6" opacity="0.7"/><path d="M6.84 -3.42 C 12.92 -6.08 19.00 -5.70 23.56 -3.04" fill="none" stroke="#ffffff" stroke-width="1.6" opacity="0.35" stroke-linecap="round"/></g><g transform="translate(-6 -18) scale(0.95)"><g transform="translate(0 0) rotate(0)"><path d="M0 0 C 3.00 -2.25 1.50 -7.65 0 -9.00 C -1.50 -7.65 -3.00 -2.25 0 0 Z" fill="#fffdf5" stroke="#c9c1a8" stroke-width="0.6" stroke-linejoin="round"/><path d="M0 -2 L0 -7.38" fill="none" stroke="#ffffff" stroke-width="0.8" opacity="0.45"/></g><g transform="translate(0 0) rotate(72)"><path d="M0 0 C 3.00 -2.25 1.50 -7.65 0 -9.00 C -1.50 -7.65 -3.00 -2.25 0 0 Z" fill="#fffdf5" stroke="#c9c1a8" stroke-width="0.6" stroke-linejoin="round"/><path d="M0 -2 L0 -7.38" fill="none" stroke="#ffffff" stroke-width="0.8" opacity="0.45"/></g><g transform="translate(0 0) rotate(144)"><path d="M0 0 C 3.00 -2.25 1.50 -7.65 0 -9.00 C -1.50 -7.65 -3.00 -2.25 0 0 Z" fill="#fffdf5" stroke="#c9c1a8" stroke-width="0.6" stroke-linejoin="round"/><path d="M0 -2 L0 -7.38" fill="none" stroke="#ffffff" stroke-width="0.8" opacity="0.45"/></g><g transform="translate(0 0) rotate(216)"><path d="M0 0 C 3.00 -2.25 1.50 -7.65 0 -9.00 C -1.50 -7.65 -3.00 -2.25 0 0 Z" fill="#fffdf5" stroke="#c9c1a8" stroke-width="0.6" stroke-linejoin="round"/><path d="M0 -2 L0 -7.38" fill="none" stroke="#ffffff" stroke-width="0.8" opacity="0.45"/></g><g transform="translate(0 0) rotate(288)"><path d="M0 0 C 3.00 -2.25 1.50 -7.65 0 -9.00 C -1.50 -7.65 -3.00 -2.25 0 0 Z" fill="#fffdf5" stroke="#c9c1a8" stroke-width="0.6" stroke-linejoin="round"/><path d="M0 -2 L0 -7.38" fill="none" stroke="#ffffff" stroke-width="0.8" opacity="0.45"/></g><circle cx="0" cy="0" r="1.6" fill="#f2c94c"/></g><g transform="translate(-14 -10) scale(0.8)"><g transform="translate(0 0) rotate(0)"><path d="M0 0 C 3.00 -2.25 1.50 -7.65 0 -9.00 C -1.50 -7.65 -3.00 -2.25 0 0 Z" fill="#fffdf5" stroke="#c9c1a8" stroke-width="0.6" stroke-linejoin="round"/><path d="M0 -2 L0 -7.38" fill="none" stroke="#ffffff" stroke-width="0.8" opacity="0.45"/></g><g transform="translate(0 0) rotate(72)"><path d="M0 0 C 3.00 -2.25 1.50 -7.65 0 -9.00 C -1.50 -7.65 -3.00 -2.25 0 0 Z" fill="#fffdf5" stroke="#c9c1a8" stroke-width="0.6" stroke-linejoin="round"/><path d="M0 -2 L0 -7.38" fill="none" stroke="#ffffff" stroke-width="0.8" opacity="0.45"/></g><g transform="translate(0 0) rotate(144)"><path d="M0 0 C 3.00 -2.25 1.50 -7.65 0 -9.00 C -1.50 -7.65 -3.00 -2.25 0 0 Z" fill="#fffdf5" stroke="#c9c1a8" stroke-width="0.6" stroke-linejoin="round"/><path d="M0 -2 L0 -7.38" fill="none" stroke="#ffffff" stroke-width="0.8" opacity="0.45"/></g><g transform="translate(0 0) rotate(216)"><path d="M0 0 C 3.00 -2.25 1.50 -7.65 0 -9.00 C -1.50 -7.65 -3.00 -2.25 0 0 Z" fill="#fffdf5" stroke="#c9c1a8" stroke-width="0.6" stroke-linejoin="round"/><path d="M0 -2 L0 -7.38" fill="none" stroke="#ffffff" stroke-width="0.8" opacity="0.45"/></g><g transform="translate(0 0) rotate(288)"><path d="M0 0 C 3.00 -2.25 1.50 -7.65 0 -9.00 C -1.50 -7.65 -3.00 -2.25 0 0 Z" fill="#fffdf5" stroke="#c9c1a8" stroke-width="0.6" stroke-linejoin="round"/><path d="M0 -2 L0 -7.38" fill="none" stroke="#ffffff" stroke-width="0.8" opacity="0.45"/></g><circle cx="0" cy="0" r="1.6" fill="#f2c94c"/></g><path d="M14.00 6.00 L11.00 -2.00" stroke="#6b4a2b" stroke-width="1" stroke-linecap="round"/><path d="M22.00 12.00 L19.00 4.00" stroke="#6b4a2b" stroke-width="1" stroke-linecap="round"/><path d="M8.00 14.00 L5.00 6.00" stroke="#6b4a2b" stroke-width="1" stroke-linecap="round"/><path d="M16.00 20.00 L13.00 12.00" stroke="#6b4a2b" stroke-width="1" stroke-linecap="round"/><path d="M26.00 22.00 L23.00 14.00" stroke="#6b4a2b" stroke-width="1" stroke-linecap="round"/><path d="M4.00 4.00 L1.00 -4.00" stroke="#6b4a2b" stroke-width="1" stroke-linecap="round"/><circle cx="14" cy="6" r="5.6" fill="url(#gCereza)" stroke="#5a0808" stroke-width="0.5"/><circle cx="12.04" cy="4.04" r="1.57" fill="#ffffff" opacity="0.55"/><circle cx="22" cy="12" r="6" fill="url(#gCereza)" stroke="#5a0808" stroke-width="0.5"/><circle cx="19.90" cy="9.90" r="1.68" fill="#ffffff" opacity="0.55"/><circle cx="8" cy="14" r="5.2" fill="url(#gCereza)" stroke="#5a0808" stroke-width="0.5"/><circle cx="6.18" cy="12.18" r="1.46" fill="#ffffff" opacity="0.55"/><circle cx="16" cy="20" r="5.4" fill="url(#gCereza)" stroke="#5a0808" stroke-width="0.5"/><circle cx="14.11" cy="18.11" r="1.51" fill="#ffffff" opacity="0.55"/><circle cx="26" cy="22" r="4.8" fill="url(#gCereza)" stroke="#5a0808" stroke-width="0.5"/><circle cx="24.32" cy="20.32" r="1.34" fill="#ffffff" opacity="0.55"/><circle cx="4" cy="4" r="4.6" fill="url(#gCereza)" stroke="#5a0808" stroke-width="0.5"/><circle cx="2.39" cy="2.39" r="1.29" fill="#ffffff" opacity="0.55"/></g></g></g></svg>