<!-- Ilustración original del manual de la LABG Suite (Luis Ángel Barrera-Guzmán). -->
<svg xmlns="http://www.w3.org/2000/svg" viewBox="611.9 426.8 118.5 124.9" role="img"><defs><radialGradient id="gCatarina" cx="50%" cy="50%" r="55%" fx="34%" fy="30%"><stop offset="0%" stop-color="#ff9a8a"/><stop offset="30%" stop-color="#ec2f22"/><stop offset="80%" stop-color="#b3100f"/><stop offset="100%" stop-color="#7a0808"/></radialGradient></defs><g transform="matrix(1 0 0 1 0 0)"><g xmlns="http://www.w3.org/2000/svg" transform="translate(670.24 491.19)"><g transform="rotate(24) scale(1.05)"><path d="M14.00 -10.00L26.00 -18.00L31.00 -28.00" fill="none" stroke="#141414" stroke-width="1.6" stroke-linecap="round" stroke-linejoin="round"/><path d="M18.00 4.00L32.00 4.00L38.00 12.00" fill="none" stroke="#141414" stroke-width="1.6" stroke-linecap="round" stroke-linejoin="round"/><path d="M14.00 18.00L27.00 28.00L30.00 40.00" fill="none" stroke="#141414" stroke-width="1.6" stroke-linecap="round" stroke-linejoin="round"/><path d="M3 -36 C 5 -42 9 -45 14 -46" fill="none" stroke="#141414" stroke-width="1.1" stroke-linecap="round"/><path d="M-14.00 -10.00L-26.00 -18.00L-31.00 -28.00" fill="none" stroke="#141414" stroke-width="1.6" stroke-linecap="round" stroke-linejoin="round"/><path d="M-18.00 4.00L-32.00 4.00L-38.00 12.00" fill="none" stroke="#141414" stroke-width="1.6" stroke-linecap="round" stroke-linejoin="round"/><path d="M-14.00 18.00L-27.00 28.00L-30.00 40.00" fill="none" stroke="#141414" stroke-width="1.6" stroke-linecap="round" stroke-linejoin="round"/><path d="M-3 -36 C -5 -42 -9 -45 -14 -46" fill="none" stroke="#141414" stroke-width="1.1" stroke-linecap="round"/><ellipse cx="0" cy="-30" rx="9" ry="7" fill="#141414"/><ellipse cx="-4.6" cy="-31" rx="2" ry="1.4" fill="#f5f5f5"/><ellipse cx="4.6" cy="-31" rx="2" ry="1.4" fill="#f5f5f5"/><path d="M-19.5 -19 C -18.5 -30 -8 -34.5 0 -34.5 C 8 -34.5 18.5 -30 19.5 -19 C 12 -16.5 -12 -16.5 -19.5 -19 Z" fill="#141414"/><path d="M-17.5 -20.5 C -16.5 -27 -12.5 -30.5 -9 -30.5 C -10 -26 -11 -22 -12 -19.2 Z" fill="#f5f5f5"/><path d="M17.5 -20.5 C 16.5 -27 12.5 -30.5 9 -30.5 C 10 -26 11 -22 12 -19.2 Z" fill="#f5f5f5"/><path d="M0 -19 C 20 -21 31 -6 30 10 C 29 30 14 42 0 42 C -14 42 -29 30 -30 10 C -31 -6 -20 -21 0 -19 Z" fill="url(#gCatarina)" stroke="#6b0b0b" stroke-width="0.8"/><path d="M-6 -19 C -6 -12 -3 -9 0 -9 C 3 -9 6 -12 6 -19 Z" fill="#141414"/><circle cx="-13" cy="-3" r="6.2" fill="#141414"/><circle cx="13" cy="-3" r="6.2" fill="#141414"/><circle cx="-21" cy="14" r="4.6" fill="#141414"/><circle cx="21" cy="14" r="4.6" fill="#141414"/><circle cx="-10" cy="27" r="5" fill="#141414"/><circle cx="10" cy="27" r="5" fill="#141414"/><path d="M0 -9 L0 42" stroke="#4a0707" stroke-width="1.2"/><ellipse cx="-14" cy="-8" rx="7.5" ry="3.2" fill="#ffffff" opacity="0.55" transform="rotate(-40 -14 -8)"/><ellipse cx="15" cy="-9" rx="4" ry="1.8" fill="#ffffff" opacity="0.35" transform="rotate(38 15 -9)"/></g></g></g></svg>