<!-- Ilustración original del manual de la LABG Suite (Luis Ángel Barrera-Guzmán). -->
<svg xmlns="http://www.w3.org/2000/svg" viewBox="703.6 453.1 72.0 114.2" role="img"><defs><radialGradient id="gChayote" cx="50%" cy="50%" r="62%" fx="36%" fy="28%"><stop offset="0%" stop-color="#f0f8d8"/><stop offset="40%" stop-color="#bcd96f"/><stop offset="80%" stop-color="#84ad3c"/><stop offset="100%" stop-color="#5d7f26"/></radialGradient><linearGradient id="gHojaCh" x1="0" y1="0" x2="1" y2="1"><stop offset="0%" stop-color="#c6e08a"/><stop offset="100%" stop-color="#6f9c30"/></linearGradient></defs><g transform="matrix(1 0 0 1 0 0)"><g xmlns="http://www.w3.org/2000/svg" transform="translate(736 528) rotate(8) scale(0.55)"><path d="M0 -56 C17 -56 29 -42 31 -24 C33 -8 44 4 44 18 C44 42 24 58 0 58 C-24 58 -44 42 -44 18 C-44 4 -33 -8 -31 -24 C-29 -42 -17 -56 0 -56 Z" fill="url(#gChayote)" stroke="#4d7020" stroke-width="1"/><path d="M-12.6 -48 C-28 -24 -28 22 -14 52" fill="none" stroke="#5d7f26" stroke-width="1.1" opacity="0.55"/><path d="M-5.4 -48 C-12 -24 -12 22 -6 52" fill="none" stroke="#5d7f26" stroke-width="1.1" opacity="0.55"/><path d="M5.4 -48 C12 -24 12 22 6 52" fill="none" stroke="#5d7f26" stroke-width="1.1" opacity="0.55"/><path d="M12.6 -48 C28 -24 28 22 14 52" fill="none" stroke="#5d7f26" stroke-width="1.1" opacity="0.55"/><path d="M-12 54 C-6 44 6 44 12 54" fill="none" stroke="#4d7020" stroke-width="1.4"/><path d="M0 -52 C2 -62 0 -70 -4 -76" fill="none" stroke="#6b8f34" stroke-width="3" stroke-linecap="round"/><path d="M-4 -76 q -9 -6 0 -12 q 9 -6 0 -12 q -9 -6 0 -12 q 9 -6 0 -12 " fill="none" stroke="#7ba53e" stroke-width="1.5" stroke-linecap="round"/><path d="M4 -74 C26 -84 44 -76 48 -58 C32 -50 12 -56 4 -74 Z" fill="url(#gHojaCh)" stroke="#4d7020" stroke-width="0.8"/></g></g></svg>