<!-- Ilustración original del manual de la LABG Suite (Luis Ángel Barrera-Guzmán). -->
<svg xmlns="http://www.w3.org/2000/svg" viewBox="345.4 513.9 159.2 151.8" role="img"><defs><radialGradient id="petalo"><stop offset="0" stop-color="#fff6c8" stop-opacity="1"/><stop offset="0.7" stop-color="#f3d35c" stop-opacity="1"/><stop offset="1" stop-color="#e2b93a" stop-opacity="1"/></radialGradient></defs><g transform="matrix(1 0 0 1 0 0)"><g xmlns="http://www.w3.org/2000/svg" transform="translate(425 590) scale(0.78)"><path d="M0 0 C -30 -22 -40 -66 -14 -88 C -6 -94 6 -94 14 -88 C 40 -66 30 -22 0 0Z" fill="url(#petalo)" stroke="#c89a22" stroke-width="1" transform="rotate(0)"/><path d="M0 -8 L0 -76" stroke="#d6aa2c" stroke-width="0.8" transform="rotate(0)"/><path d="M0 0 C -30 -22 -40 -66 -14 -88 C -6 -94 6 -94 14 -88 C 40 -66 30 -22 0 0Z" fill="url(#petalo)" stroke="#c89a22" stroke-width="1" transform="rotate(72)"/><path d="M0 -8 L0 -76" stroke="#d6aa2c" stroke-width="0.8" transform="rotate(72)"/><path d="M0 0 C -30 -22 -40 -66 -14 -88 C -6 -94 6 -94 14 -88 C 40 -66 30 -22 0 0Z" fill="url(#petalo)" stroke="#c89a22" stroke-width="1" transform="rotate(144)"/><path d="M0 -8 L0 -76" stroke="#d6aa2c" stroke-width="0.8" transform="rotate(144)"/><path d="M0 0 C -30 -22 -40 -66 -14 -88 C -6 -94 6 -94 14 -88 C 40 -66 30 -22 0 0Z" fill="url(#petalo)" stroke="#c89a22" stroke-width="1" transform="rotate(216)"/><path d="M0 -8 L0 -76" stroke="#d6aa2c" stroke-width="0.8" transform="rotate(216)"/><path d="M0 0 C -30 -22 -40 -66 -14 -88 C -6 -94 6 -94 14 -88 C 40 -66 30 -22 0 0Z" fill="url(#petalo)" stroke="#c89a22" stroke-width="1" transform="rotate(288)"/><path d="M0 -8 L0 -76" stroke="#d6aa2c" stroke-width="0.8" transform="rotate(288)"/><circle cx="0" cy="0" r="24" fill="#f8e9a6" stroke="#d9b240" stroke-width="1"/><ellipse cx="9.00" cy="0.00" rx="8" ry="6" fill="#e2a92b" transform="rotate(0 9.00 0.00)"/><ellipse cx="-4.50" cy="7.80" rx="8" ry="6" fill="#e2a92b" transform="rotate(120 -4.50 7.80)"/><ellipse cx="-4.51" cy="-7.79" rx="8" ry="6" fill="#e2a92b" transform="rotate(240 -4.51 -7.79)"/></g></g></svg>