<!-- Ilustración original del manual de la LABG Suite (Luis Ángel Barrera-Guzmán). -->
<svg xmlns="http://www.w3.org/2000/svg" viewBox="710.0 550.8 82.0 113.2" role="img"><defs></defs><g transform="matrix(1 0 0 1 0 0)"><g xmlns="http://www.w3.org/2000/svg" transform="translate(754 660) scale(1)"><path d="M0 0 L0 -40 M0 -40 l -16 -20 M0 -40 l 16 -22 M0 -46 l -4 -30" stroke="#8a6a4a" stroke-width="3" stroke-linecap="round" fill="none"/><circle cx="0" cy="-72" r="30" fill="#5d984a"/><circle cx="-18" cy="-58" r="16" fill="#6fa35d"/><circle cx="19" cy="-60" r="15" fill="#6fa35d"/><circle cx="-10" cy="-78" r="4.2" fill="#c0406a"/><circle cx="12" cy="-70" r="4.2" fill="#c0406a"/><circle cx="2" cy="-56" r="4.2" fill="#c0406a"/><circle cx="-20" cy="-52" r="4.2" fill="#c0406a"/><g transform="translate(-34 -100)" stroke="#6fb7e0" stroke-width="1.3" stroke-linecap="round"><line x1="-6" y1="0" x2="6" y2="0" transform="rotate(0)"/><line x1="-6" y1="0" x2="6" y2="0" transform="rotate(60)"/><line x1="-6" y1="0" x2="6" y2="0" transform="rotate(120)"/></g></g></g></svg>