<!-- Ilustración original del manual de la LABG Suite (Luis Ángel Barrera-Guzmán). -->
<svg xmlns="http://www.w3.org/2000/svg" viewBox="545.7 710.6 105.5 63.1" role="img"><defs><linearGradient id="gEscama" x1="0" y1="0" x2="0" y2="1"><stop offset="0%" stop-color="#d9a361"/><stop offset="48%" stop-color="#a46a30"/><stop offset="100%" stop-color="#6b3d16"/></linearGradient></defs><g transform="matrix(1 0 0 1 0 0)"><g xmlns="http://www.w3.org/2000/svg" transform="translate(600 744) rotate(0) scale(0.68)"><path d="M-74 22 C-40 16 -6 8 26 0" fill="none" stroke="#6b4a2a" stroke-width="4.5" stroke-linecap="round"/><path d="M-72.0 21.0 Q-65.1 5.8 -59.4 -10.2" fill="none" stroke="#306c50" stroke-width="1.5" stroke-linecap="round"/><path d="M-72.0 21.0 Q-59.3 8.6 -49.0 -5.1" fill="none" stroke="#457d59" stroke-width="1.5" stroke-linecap="round"/><path d="M-72.0 21.0 Q-57.7 14.3 -46.0 5.2" fill="none" stroke="#3a7454" stroke-width="1.5" stroke-linecap="round"/><path d="M-60.5 18.5 Q-54.9 6.7 -50.4 -6.5" fill="none" stroke="#407957" stroke-width="1.5" stroke-linecap="round"/><path d="M-60.5 18.5 Q-50.8 8.7 -42.8 -2.9" fill="none" stroke="#51875f" stroke-width="1.5" stroke-linecap="round"/><path d="M-60.5 18.5 Q-47.7 11.3 -37.1 1.8" fill="none" stroke="#3b7555" stroke-width="1.5" stroke-linecap="round"/><path d="M-49.0 16.0 Q-43.9 2.8 -39.7 -11.7" fill="none" stroke="#387253" stroke-width="1.5" stroke-linecap="round"/><path d="M-49.0 16.0 Q-38.1 2.3 -29.1 -12.6" fill="none" stroke="#357052" stroke-width="1.5" stroke-linecap="round"/><path d="M-49.0 16.0 Q-34.5 6.8 -22.7 -4.4" fill="none" stroke="#437b58" stroke-width="1.5" stroke-linecap="round"/><path d="M-37.5 13.5 Q-33.3 0.3 -29.8 -14.1" fill="none" stroke="#578c61" stroke-width="1.5" stroke-linecap="round"/><path d="M-37.5 13.5 Q-28.4 2.7 -21.0 -9.8" fill="none" stroke="#3c7655" stroke-width="1.5" stroke-linecap="round"/><path d="M-37.5 13.5 Q-22.8 4.2 -10.7 -7.0" fill="none" stroke="#346f51" stroke-width="1.5" stroke-linecap="round"/><path d="M-26.0 11.0 Q-22.0 -3.4 -18.7 -18.8" fill="none" stroke="#3c7655" stroke-width="1.5" stroke-linecap="round"/><path d="M-26.0 11.0 Q-15.9 -2.0 -7.6 -16.3" fill="none" stroke="#4e855d" stroke-width="1.5" stroke-linecap="round"/><path d="M-26.0 11.0 Q-12.3 1.9 -1.1 -9.2" fill="none" stroke="#417a57" stroke-width="1.5" stroke-linecap="round"/><path d="M-14.5 8.5 Q-10.5 -6.8 -7.1 -23.0" fill="none" stroke="#558b61" stroke-width="1.5" stroke-linecap="round"/><path d="M-14.5 8.5 Q-5.3 -5.5 2.3 -20.5" fill="none" stroke="#326d50" stroke-width="1.5" stroke-linecap="round"/><path d="M-14.5 8.5 Q-1.4 -2.2 9.3 -14.6" fill="none" stroke="#49805b" stroke-width="1.5" stroke-linecap="round"/><path d="M-3.0 6.0 Q0.2 -10.1 2.8 -27.0" fill="none" stroke="#377152" stroke-width="1.5" stroke-linecap="round"/><path d="M-3.0 6.0 Q4.6 -7.2 10.9 -21.6" fill="none" stroke="#336f51" stroke-width="1.5" stroke-linecap="round"/><path d="M-3.0 6.0 Q9.1 -4.7 19.0 -17.1" fill="none" stroke="#346f51" stroke-width="1.5" stroke-linecap="round"/><path d="M8.5 3.5 Q10.4 -9.3 11.9 -23.5" fill="none" stroke="#417a57" stroke-width="1.5" stroke-linecap="round"/><path d="M8.5 3.5 Q15.0 -7.8 20.3 -20.6" fill="none" stroke="#578c61" stroke-width="1.5" stroke-linecap="round"/><path d="M8.5 3.5 Q19.3 -5.5 28.2 -16.6" fill="none" stroke="#52895f" stroke-width="1.5" stroke-linecap="round"/><path d="M20.0 1.0 Q22.2 -13.0 24.0 -28.1" fill="none" stroke="#558b61" stroke-width="1.5" stroke-linecap="round"/><path d="M20.0 1.0 Q26.0 -10.0 30.9 -22.6" fill="none" stroke="#306c4f" stroke-width="1.5" stroke-linecap="round"/><path d="M20.0 1.0 Q31.2 -10.3 40.3 -23.2" fill="none" stroke="#48805b" stroke-width="1.5" stroke-linecap="round"/><g transform="translate(36 -4) rotate(14)"><path d="M0 -34 C18 -34 26 -18 26 2 C26 22 16 34 0 34 C-16 34 -26 22 -26 2 C-26 -18 -18 -34 0 -34 Z" fill="#6d421c"/><path d="M-17.4 -26.5 C-17.4 -35.5 -4.3 -35.5 -4.3 -26.5 C-6.1 -20.9 -15.6 -20.9 -17.4 -26.5 Z" fill="url(#gEscama)" stroke="#4a2c11" stroke-width="0.7" stroke-linejoin="round"/><path d="M-13.8 -25.6 L-10.9 -30.3 L-7.9 -25.6" fill="none" stroke="#f0d9b0" stroke-width="0.6" opacity="0.55"/><path d="M-8.2 -26.5 C-8.2 -35.5 8.2 -35.5 8.2 -26.5 C5.9 -20.9 -5.9 -20.9 -8.2 -26.5 Z" fill="url(#gEscama)" stroke="#4a2c11" stroke-width="0.7" stroke-linejoin="round"/><path d="M-3.7 -25.6 L0.0 -30.3 L3.7 -25.6" fill="none" stroke="#f0d9b0" stroke-width="0.6" opacity="0.55"/><path d="M4.3 -26.5 C4.3 -35.5 17.4 -35.5 17.4 -26.5 C15.6 -20.9 6.1 -20.9 4.3 -26.5 Z" fill="url(#gEscama)" stroke="#4a2c11" stroke-width="0.7" stroke-linejoin="round"/><path d="M7.9 -25.6 L10.9 -30.3 L13.8 -25.6" fill="none" stroke="#f0d9b0" stroke-width="0.6" opacity="0.55"/><path d="M-21.9 -16.0 C-21.9 -25.0 -8.8 -25.0 -8.8 -16.0 C-10.7 -10.4 -20.1 -10.4 -21.9 -16.0 Z" fill="url(#gEscama)" stroke="#4a2c11" stroke-width="0.7" stroke-linejoin="round"/><path d="M-18.3 -15.1 L-15.4 -19.8 L-12.4 -15.1" fill="none" stroke="#f0d9b0" stroke-width="0.6" opacity="0.55"/><path d="M-12.8 -16.0 C-12.8 -25.0 2.5 -25.0 2.5 -16.0 C0.4 -10.4 -10.6 -10.4 -12.8 -16.0 Z" fill="url(#gEscama)" stroke="#4a2c11" stroke-width="0.7" stroke-linejoin="round"/><path d="M-8.6 -15.1 L-5.1 -19.8 L-1.7 -15.1" fill="none" stroke="#f0d9b0" stroke-width="0.6" opacity="0.55"/><path d="M-2.5 -16.0 C-2.5 -25.0 12.8 -25.0 12.8 -16.0 C10.6 -10.4 -0.4 -10.4 -2.5 -16.0 Z" fill="url(#gEscama)" stroke="#4a2c11" stroke-width="0.7" stroke-linejoin="round"/><path d="M1.7 -15.1 L5.1 -19.8 L8.6 -15.1" fill="none" stroke="#f0d9b0" stroke-width="0.6" opacity="0.55"/><path d="M8.8 -16.0 C8.8 -25.0 21.9 -25.0 21.9 -16.0 C20.1 -10.4 10.7 -10.4 8.8 -16.0 Z" fill="url(#gEscama)" stroke="#4a2c11" stroke-width="0.7" stroke-linejoin="round"/><path d="M12.4 -15.1 L15.4 -19.8 L18.3 -15.1" fill="none" stroke="#f0d9b0" stroke-width="0.6" opacity="0.55"/><path d="M-23.9 -5.5 C-23.9 -14.5 -10.8 -14.5 -10.8 -5.5 C-12.6 0.1 -22.1 0.1 -23.9 -5.5 Z" fill="url(#gEscama)" stroke="#4a2c11" stroke-width="0.7" stroke-linejoin="round"/><path d="M-20.3 -4.6 L-17.4 -9.3 L-14.4 -4.6" fill="none" stroke="#f0d9b0" stroke-width="0.6" opacity="0.55"/><path d="M-8.2 -5.5 C-8.2 -14.5 8.2 -14.5 8.2 -5.5 C5.9 0.1 -5.9 0.1 -8.2 -5.5 Z" fill="url(#gEscama)" stroke="#4a2c11" stroke-width="0.7" stroke-linejoin="round"/><path d="M-3.7 -4.6 L0.0 -9.3 L3.7 -4.6" fill="none" stroke="#f0d9b0" stroke-width="0.6" opacity="0.55"/><path d="M10.8 -5.5 C10.8 -14.5 23.9 -14.5 23.9 -5.5 C22.1 0.1 12.6 0.1 10.8 -5.5 Z" fill="url(#gEscama)" stroke="#4a2c11" stroke-width="0.7" stroke-linejoin="round"/><path d="M14.4 -4.6 L17.4 -9.3 L20.3 -4.6" fill="none" stroke="#f0d9b0" stroke-width="0.6" opacity="0.55"/><path d="M-24.3 5.0 C-24.3 -4.0 -11.1 -4.0 -11.1 5.0 C-13.0 10.6 -22.4 10.6 -24.3 5.0 Z" fill="url(#gEscama)" stroke="#4a2c11" stroke-width="0.7" stroke-linejoin="round"/><path d="M-20.7 5.9 L-17.7 1.2 L-14.7 5.9" fill="none" stroke="#f0d9b0" stroke-width="0.6" opacity="0.55"/><path d="M-13.6 5.0 C-13.6 -4.0 1.8 -4.0 1.8 5.0 C-0.4 10.6 -11.4 10.6 -13.6 5.0 Z" fill="url(#gEscama)" stroke="#4a2c11" stroke-width="0.7" stroke-linejoin="round"/><path d="M-9.3 5.9 L-5.9 1.2 L-2.5 5.9" fill="none" stroke="#f0d9b0" stroke-width="0.6" opacity="0.55"/><path d="M-1.8 5.0 C-1.8 -4.0 13.6 -4.0 13.6 5.0 C11.4 10.6 0.4 10.6 -1.8 5.0 Z" fill="url(#gEscama)" stroke="#4a2c11" stroke-width="0.7" stroke-linejoin="round"/><path d="M2.5 5.9 L5.9 1.2 L9.3 5.9" fill="none" stroke="#f0d9b0" stroke-width="0.6" opacity="0.55"/><path d="M11.1 5.0 C11.1 -4.0 24.3 -4.0 24.3 5.0 C22.4 10.6 13.0 10.6 11.1 5.0 Z" fill="url(#gEscama)" stroke="#4a2c11" stroke-width="0.7" stroke-linejoin="round"/><path d="M14.7 5.9 L17.7 1.2 L20.7 5.9" fill="none" stroke="#f0d9b0" stroke-width="0.6" opacity="0.55"/><path d="M-23.0 15.5 C-23.0 6.5 -9.9 6.5 -9.9 15.5 C-11.7 21.1 -21.2 21.1 -23.0 15.5 Z" fill="url(#gEscama)" stroke="#4a2c11" stroke-width="0.7" stroke-linejoin="round"/><path d="M-19.4 16.4 L-16.5 11.7 L-13.5 16.4" fill="none" stroke="#f0d9b0" stroke-width="0.6" opacity="0.55"/><path d="M-8.2 15.5 C-8.2 6.5 8.2 6.5 8.2 15.5 C5.9 21.1 -5.9 21.1 -8.2 15.5 Z" fill="url(#gEscama)" stroke="#4a2c11" stroke-width="0.7" stroke-linejoin="round"/><path d="M-3.7 16.4 L0.0 11.7 L3.7 16.4" fill="none" stroke="#f0d9b0" stroke-width="0.6" opacity="0.55"/><path d="M9.9 15.5 C9.9 6.5 23.0 6.5 23.0 15.5 C21.2 21.1 11.7 21.1 9.9 15.5 Z" fill="url(#gEscama)" stroke="#4a2c11" stroke-width="0.7" stroke-linejoin="round"/><path d="M13.5 16.4 L16.5 11.7 L19.4 16.4" fill="none" stroke="#f0d9b0" stroke-width="0.6" opacity="0.55"/><path d="M-19.8 26.0 C-19.8 17.0 -6.7 17.0 -6.7 26.0 C-8.5 31.6 -18.0 31.6 -19.8 26.0 Z" fill="url(#gEscama)" stroke="#4a2c11" stroke-width="0.7" stroke-linejoin="round"/><path d="M-16.2 26.9 L-13.2 22.2 L-10.3 26.9" fill="none" stroke="#f0d9b0" stroke-width="0.6" opacity="0.55"/><path d="M-12.1 26.0 C-12.1 17.0 3.2 17.0 3.2 26.0 C1.1 31.6 -9.9 31.6 -12.1 26.0 Z" fill="url(#gEscama)" stroke="#4a2c11" stroke-width="0.7" stroke-linejoin="round"/><path d="M-7.9 26.9 L-4.4 22.2 L-1.0 26.9" fill="none" stroke="#f0d9b0" stroke-width="0.6" opacity="0.55"/><path d="M-3.2 26.0 C-3.2 17.0 12.1 17.0 12.1 26.0 C9.9 31.6 -1.1 31.6 -3.2 26.0 Z" fill="url(#gEscama)" stroke="#4a2c11" stroke-width="0.7" stroke-linejoin="round"/><path d="M1.0 26.9 L4.4 22.2 L7.9 26.9" fill="none" stroke="#f0d9b0" stroke-width="0.6" opacity="0.55"/><path d="M6.7 26.0 C6.7 17.0 19.8 17.0 19.8 26.0 C18.0 31.6 8.5 31.6 6.7 26.0 Z" fill="url(#gEscama)" stroke="#4a2c11" stroke-width="0.7" stroke-linejoin="round"/><path d="M10.3 26.9 L13.2 22.2 L16.2 26.9" fill="none" stroke="#f0d9b0" stroke-width="0.6" opacity="0.55"/><ellipse cx="0" cy="33" rx="4.6" ry="3.6" fill="#6b4a2a"/></g><ellipse cx="-30" cy="26" rx="6" ry="4.4" fill="#d9c08a" stroke="#9a7b3e" stroke-width="0.6" transform="rotate(-18 -30 26)"/><ellipse cx="-18" cy="32" rx="6" ry="4.4" fill="#e6d2a6" stroke="#9a7b3e" stroke-width="0.6" transform="rotate(8 -18 32)"/></g></g></svg>